<svg width="1920" height="1080" xmlns="http://www.w3.org/2000/svg">
  <defs>
    <linearGradient id="skyGrad" x1="0%" y1="0%" x2="100%" y2="100%">
      <stop offset="0%" style="stop-color:#1e3a8a;stop-opacity:1" />
      <stop offset="50%" style="stop-color:#7e22ce;stop-opacity:1" />
      <stop offset="100%" style="stop-color:#1e3a8a;stop-opacity:1" />
    </linearGradient>
    <radialGradient id="glow" cx="50%" cy="50%" r="50%">
      <stop offset="0%" style="stop-color:#ffffff;stop-opacity:0.1" />
      <stop offset="100%" style="stop-color:#ffffff;stop-opacity:0" />
    </radialGradient>
  </defs>
  
  <!-- Background gradient -->
  <rect fill="url(#skyGrad)" width="1920" height="1080"/>
  
  <!-- Glow effect -->
  <circle cx="960" cy="540" r="800" fill="url(#glow)" opacity="0.3"/>
  
  <!-- Subtle pattern -->
  <g opacity="0.05">
    <circle cx="100" cy="100" r="2" fill="white"/>
    <circle cx="200" cy="150" r="2" fill="white"/>
    <circle cx="300" cy="80" r="2" fill="white"/>
    <circle cx="400" cy="200" r="2" fill="white"/>
    <circle cx="500" cy="120" r="2" fill="white"/>
    <circle cx="600" cy="180" r="2" fill="white"/>
    <circle cx="700" cy="90" r="2" fill="white"/>
    <circle cx="800" cy="220" r="2" fill="white"/>
    <circle cx="900" cy="140" r="2" fill="white"/>
    <circle cx="1000" cy="190" r="2" fill="white"/>
    <circle cx="1100" cy="110" r="2" fill="white"/>
    <circle cx="1200" cy="210" r="2" fill="white"/>
    <circle cx="1300" cy="130" r="2" fill="white"/>
    <circle cx="1400" cy="170" r="2" fill="white"/>
    <circle cx="1500" cy="100" r="2" fill="white"/>
    <circle cx="1600" cy="200" r="2" fill="white"/>
    <circle cx="1700" cy="120" r="2" fill="white"/>
    <circle cx="1800" cy="180" r="2" fill="white"/>
  </g>
  
  <!-- Airplane silhouette (simple) -->
  <g transform="translate(860, 480)" opacity="0.15">
    <path d="M0,0 L80,0 L100,20 L80,40 L0,40 L-20,20 Z" fill="white"/>
    <ellipse cx="50" cy="20" rx="60" ry="10" fill="white" opacity="0.5"/>
  </g>
</svg>
